<?xml version="1.0" standalone="no"?>
<!DOCTYPE svg PUBLIC "-//W3C//DTD SVG 20010904//EN"
 "http://www.w3.org/TR/2001/REC-SVG-20010904/DTD/svg10.dtd">
<svg version="1.0" xmlns="http://www.w3.org/2000/svg"
 width="367.000000pt" height="367.000000pt" viewBox="0 0 367.000000 367.000000"
 preserveAspectRatio="xMidYMid meet">
<metadata>
Created by potrace 1.11, written by Peter Selinger 2001-2013
</metadata>
<g transform="translate(0.000000,367.000000) scale(0.100000,-0.100000)"
fill="#000000" stroke="none">
<path d="M1708 3665 c-2 -1 -39 -6 -83 -10 -44 -4 -82 -8 -85 -10 -3 -2 -24
-6 -47 -10 -101 -15 -338 -88 -365 -113 -25 -22 -22 -54 10 -114 16 -29 66
-125 112 -213 45 -88 97 -187 115 -220 37 -68 97 -183 208 -396 42 -80 95
-179 117 -220 37 -67 128 -251 154 -307 6 -13 22 -26 38 -29 33 -6 35 -14 10
-36 -22 -20 -46 -22 -60 -4 -6 6 -45 80 -88 162 -43 83 -104 200 -135 260 -32
61 -81 155 -109 210 -29 55 -82 156 -118 225 -36 69 -105 201 -153 294 -56
109 -95 173 -110 181 -20 11 -31 8 -88 -22 -300 -161 -548 -390 -705 -650 -89
-148 -180 -383 -202 -519 -3 -21 -8 -42 -9 -45 -2 -3 -7 -28 -11 -55 -3 -27
-9 -69 -13 -94 -4 -25 -6 -65 -6 -90 l0 -45 55 -2 c91 -4 138 -3 181 2 48 6
79 -14 79 -50 0 -37 -20 -44 -130 -44 -58 -1 -118 -3 -135 -5 -16 -2 -35 -4
-42 -5 -7 -1 -11 -7 -8 -13 2 -7 6 -51 9 -98 10 -136 39 -280 83 -405 36 -101
123 -275 139 -275 18 0 44 -40 44 -67 0 -13 6 -23 13 -23 20 0 47 -33 47 -59
0 -13 9 -25 23 -30 12 -5 46 -36 75 -69 82 -95 174 -179 279 -258 69 -51 217
-134 313 -176 91 -40 149 -60 305 -108 17 -5 64 -16 105 -24 202 -40 223 -41
255 -13 26 22 27 27 29 127 2 65 8 115 16 130 l13 24 10 -24 c5 -14 12 -87 14
-162 4 -94 10 -141 19 -148 20 -17 99 -15 244 5 173 24 394 97 549 182 180 99
377 270 536 464 54 66 168 250 213 341 85 177 146 396 158 567 3 42 7 81 9 87
8 28 -14 33 -159 35 -130 2 -151 4 -168 21 -21 21 -22 28 -5 52 11 15 33 18
173 19 l161 2 -3 40 c-4 62 -15 158 -19 180 -3 11 -7 36 -9 55 -8 52 -66 254
-77 265 -5 5 -9 16 -9 24 0 8 -27 69 -59 135 -58 120 -161 283 -224 354 -175
200 -327 325 -519 425 -207 110 -204 106 -160 173 32 50 31 73 -6 93 -52 27
-290 92 -387 106 -23 3 -52 8 -65 11 -27 5 -337 14 -342 9z"/>
</g>
</svg>
